<?xml version="1.0" encoding="utf-8"?>
<!-- Generator: Adobe Illustrator 23.0.1, SVG Export Plug-In . SVG Version: 6.00 Build 0)  -->
<svg version="1.1" id="Layer_1" xmlns="http://www.w3.org/2000/svg" xmlns:xlink="http://www.w3.org/1999/xlink" x="0px" y="0px"
	 viewBox="0 0 500 1000" style="enable-background:new 0 0 500 1000;" xml:space="preserve">
<style type="text/css">
	.st0{fill:#D58C95;}
	.st1{stroke:#FFFFFF;stroke-miterlimit:10;}
</style>
<path class="st0" d="M1,0.5v298c0,0,163,25,304-22s153-63,153-63s58-27,26-79s-103-64-103-64l-59-15L1,0.5z"/>
<path class="st1" d="M347.5,399.5"/>
<path class="st0" d="M0,730v264.25c0,0,142.54,22.17,265.85-19.51s184.52-79.81,156.54-125.92c-27.98-46.11-90.07-56.75-90.07-56.75
	l-51.6-13.3L0,730z"/>
<path class="st0" d="M0.5,546v195.64c0,0,160.96,16.41,300.19-14.44s208.35-59.09,176.76-93.22s-101.71-42.02-101.71-42.02
	l-58.26-9.85L0.5,546z"/>
<path class="st0" d="M0.5,299v248.46c0,0,98.83,20.84,184.33-18.34c85.49-39.19,127.94-75.04,108.53-118.39
	c-19.4-43.36-62.45-53.36-62.45-53.36l-35.77-12.51L0.5,299z"/>
</svg>
